# xmcd
#
# Track frame offsets: 
#        150
#        13797
#        29345
#        48945
#        63977
#        85927
#        99852
#        112842
#        129575
#        143087
#
# Disc length: 2138 seconds
#
# Revision: 4
# Processed by: cddbd v1.5.2PL0 Copyright (c) Steve Scherf et al.
# Submitted via: ExactAudioCopy v1.0b1
#
DISCID=7708580a
DTITLE=Brooks and Dunn - Waitin' On Sundown
DYEAR=1900
DGENRE=Country
TTITLE0=Little Miss Honky Tonk
TTITLE1=She's Not The Cheatin' Kind
TTITLE2=Silver and Gold
TTITLE3=I'll Never Forgive My Heart
TTITLE4=You're Gonna Miss Me When I'm Gone
TTITLE5=My Kind Of Crazy
TTITLE6=Whisky Under The Bridge
TTITLE7=If That's The Way You Want It
TTITLE8=She's The Kind Of Trouble
TTITLE9=A Few Good Rides Away
EXTD=ID3G: 2
EXTT0=
EXTT1=
EXTT2=
EXTT3=
EXTT4=
EXTT5=
EXTT6=
EXTT7=
EXTT8=
EXTT9=
PLAYORDER=
